<svg width="64" height="64" viewBox="0 0 64 64" fill="none" xmlns="http://www.w3.org/2000/svg">
<path d="M31.8724 64H32.1276C44.8377 64 52.2154 62.7203 57.4412 57.6472C62.7697 52.2657 64 44.8389 64 32.179V31.821C64 19.165 62.7697 11.7877 57.4412 6.35277C52.2192 1.2797 44.7882 0 32.1314 0H31.8762C19.1661 0 11.7846 1.2797 6.55883 6.35277C1.23026 11.7344 0 19.165 0 31.821V32.179C0 44.835 1.23026 52.2123 6.55883 57.6472C11.735 62.7203 19.1661 64 31.8724 64Z" fill="#202022"/>
<path d="M26.2215 14.2512C26.4214 13.9033 26.776 13.6803 27.1507 13.6668L30.5313 13.5456C31.0636 13.5265 31.494 13.93 31.5314 14.4829C31.5314 14.4829 31.8371 16.5378 31.692 17.8437C31.1772 22.4777 26.6834 23.8682 23.9605 26.9146C23.5651 27.3676 23.2078 27.8658 22.8964 28.4074C20.3631 32.8134 21.8103 36.977 23.9422 39.871C24.1737 40.1853 24.1466 40.8548 23.7927 40.7539C20.1609 39.7238 17.8163 40.6089 15.4125 42.7478C14.8837 43.1623 14.1622 43.0154 13.8855 42.4367L12.2949 39.4965C12.1385 39.1693 12.1606 38.7675 12.3527 38.4332L26.2215 14.2512Z" fill="#FB7452"/>
<path d="M51.6491 38.3704C51.8491 38.7183 51.8642 39.1382 51.6885 39.4707L50.1027 42.4712C49.8531 42.9436 49.2899 43.1161 48.7943 42.8722C48.7943 42.8722 46.8692 42.1106 45.8155 41.3314C42.0764 38.5668 43.124 33.9637 41.8581 30.0725C41.6652 29.5022 41.4141 28.9424 41.1027 28.4008C38.5694 23.9948 34.2549 23.1715 30.693 23.5784C30.3063 23.6226 29.7424 23.2643 30.0064 23.0069C32.7107 20.3637 33.1196 17.8823 32.4768 14.7225C32.3838 14.0553 32.8712 13.5013 33.5087 13.5501L36.8397 13.6369C37.2001 13.6646 37.5356 13.8847 37.7278 14.2189L51.6491 38.3704Z" fill="#FB7452"/>
<path d="M18.1337 48.4232C17.7338 48.4232 17.3641 48.2264 17.1651 47.9073L15.3703 45.0281C15.0877 44.5748 15.2205 43.9987 15.6786 43.6898C15.6786 43.6898 17.298 42.3965 18.4969 41.8697C22.7508 40.0004 26.1969 43.213 30.1858 44.0577C30.7741 44.1751 31.3825 44.2366 32.0052 44.2366C37.0718 44.2366 39.9391 40.8963 41.3691 37.5954C41.5244 37.237 42.1153 36.9257 42.2053 37.284C43.1328 40.9573 45.0684 42.5537 48.115 43.5746C48.7369 43.8273 48.9709 44.5281 48.6102 45.0581L46.8697 47.9114C46.6657 48.211 46.3082 48.3927 45.9238 48.3927L18.1337 48.4232Z" fill="#FB7452"/>
</svg>
